<svg width="1024" height="1024" viewBox="0 0 1024 1024" fill="none" xmlns="http://www.w3.org/2000/svg">
  <defs>
    <linearGradient id="bg" x1="120" y1="80" x2="920" y2="944" gradientUnits="userSpaceOnUse">
      <stop offset="0" stop-color="#0E3E55"/>
      <stop offset="0.5" stop-color="#1B7E99"/>
      <stop offset="1" stop-color="#2EC5D3"/>
    </linearGradient>
    <linearGradient id="badge" x1="300" y1="240" x2="760" y2="800" gradientUnits="userSpaceOnUse">
      <stop offset="0" stop-color="#FFFFFF"/>
      <stop offset="1" stop-color="#D8F2F6"/>
    </linearGradient>
    <linearGradient id="sea" x1="220" y1="620" x2="820" y2="900" gradientUnits="userSpaceOnUse">
      <stop offset="0" stop-color="#7BE3EE"/>
      <stop offset="1" stop-color="#3AAFC6"/>
    </linearGradient>
    <linearGradient id="mountain" x1="220" y1="520" x2="820" y2="760" gradientUnits="userSpaceOnUse">
      <stop offset="0" stop-color="#B9E6ED"/>
      <stop offset="1" stop-color="#5BA8BE"/>
    </linearGradient>
    <linearGradient id="sun" x1="0" y1="0" x2="1" y2="1">
      <stop offset="0" stop-color="#FFD6A1"/>
      <stop offset="1" stop-color="#FF7A45"/>
    </linearGradient>
  </defs>

  <rect x="64" y="64" width="896" height="896" rx="200" fill="url(#bg)"/>
  <rect x="140" y="140" width="744" height="744" rx="180" fill="url(#badge)"/>

  <circle cx="700" cy="340" r="90" fill="url(#sun)"/>

  <path d="M220 640C320 560 420 520 512 540C604 560 708 620 820 690V820H220V640Z" fill="url(#mountain)"/>
  <path d="M220 700C340 640 460 630 560 660C660 692 740 740 820 790V860H220V700Z" fill="#3A90A6" fill-opacity="0.85"/>

  <path d="M260 780C350 740 440 740 520 780C600 820 700 840 800 830V884H260V780Z" fill="url(#sea)"/>

  <path d="M320 760C380 720 460 700 540 720C620 740 680 780 720 840" stroke="white" stroke-width="24" stroke-linecap="round" stroke-opacity="0.8"/>

  <path d="M300 430L420 320L500 420L610 300L740 460H300Z" fill="#FFFFFF" fill-opacity="0.9"/>
  <path d="M420 320L500 420L610 300L686 400L610 460H300L420 320Z" fill="#CFE9F0" fill-opacity="0.95"/>

  <path d="M352 560L512 460L672 560" stroke="#0E3E55" stroke-width="36" stroke-linecap="round" stroke-linejoin="round" opacity="0.9"/>
  <circle cx="512" cy="460" r="28" fill="#0E3E55"/>

  <circle cx="512" cy="512" r="420" stroke="#FFFFFF" stroke-opacity="0.15" stroke-width="12"/>
</svg>
